<svg xmlns="http://www.w3.org/2000/svg" width="869" height="119" viewBox="0 0 869 119" fill="none"><path d="M111.438 92.4815L88.8113 26.0013H108.924L124.934 73.4682C125.728 75.9944 126.125 79.3184 126.258 81.9776L126.522 81.8447C126.39 79.3184 126.655 75.9944 127.448 73.4682L140.548 26.0013H171.246L184.875 73.7341C185.669 76.1274 185.933 79.5844 185.801 82.1106H186.066C186.198 79.5844 186.595 76.2603 187.521 73.7341L203.4 26.0013H223.644L200.885 92.4815H170.717L157.353 45.8124C156.559 42.8873 156.162 38.8985 156.162 35.8404H155.897C155.897 38.8985 155.5 42.8873 154.706 45.8124L141.871 92.4815H111.438Z" fill="#111111"></path><path d="M0.333252 65.158L18.5933 64.2273C19.1225 73.2686 27.8556 77.3904 41.0875 77.5233C57.0981 77.7892 66.8897 73.9334 66.8897 64.8921C66.8897 48.0061 1.12717 63.5625 1.12717 29.1258C1.12717 8.11804 20.3134 -0.258452 42.6753 0.00746481C64.7726 0.27339 81.3124 8.64988 82.2387 27.9291L64.3756 28.8598C63.714 20.8822 56.9657 17.4253 42.6753 17.4253C28.2525 17.4253 20.0488 21.547 20.0488 28.9928C20.0488 44.4162 85.8113 28.5939 85.8113 63.9614C85.8113 77.2574 77.2105 95.0741 41.4844 95.0741C9.33094 95.0741 0.730209 80.3155 0.333252 65.158Z" fill="#111111"></path><path d="M229.644 92.4815V26.0013H248.169V92.4815H229.644Z" fill="#111111"></path><path d="M254.301 118.871L254.169 25.7991H273.091V34.1756C273.091 37.2337 272.429 41.0896 271.37 43.8817L271.635 44.0147C272.694 41.0896 274.017 37.3667 276.134 35.1063C282.088 28.8572 292.409 25.0013 301.142 25.0013C322.975 25.0013 335.148 36.0371 335.148 59.0392C335.148 82.0413 322.975 92.9441 301.142 93.077C292.409 93.077 282.088 89.0882 276.134 82.8391C274.017 80.5788 272.694 76.8559 271.635 73.9307L271.37 74.0637C272.429 76.9888 273.091 80.8447 273.091 83.9028V118.871H254.301ZM273.223 59.0392C273.223 70.0749 283.147 78.8503 296.114 78.7173C311.331 78.7173 316.359 70.6068 316.359 59.0392C316.359 47.4717 311.331 40.2918 296.114 40.1588C283.147 40.1588 273.223 48.0035 273.223 59.0392Z" fill="#111111"></path><path d="M381.373 93.0782C359.673 93.2112 341.148 82.0425 341.148 59.0404C341.148 36.0382 359.673 24.8696 381.373 25.0025C403.073 25.1355 419.878 36.0382 419.878 59.0404C419.878 60.9018 419.746 61.0348 419.746 62.7633H360.599C362.055 73.0012 371.052 78.8515 381.902 78.7185C392.091 78.7185 398.707 76.7241 401.75 67.9487L419.216 68.8794C414.453 88.1587 399.633 92.9452 381.373 93.0782ZM381.902 38.4315C371.979 38.4315 359.408 44.9466 360.599 62.7633C352.774 57.5657 350.707 52.0315 356.529 52.0315H402.843C401.652 41.1288 392.62 38.5645 381.902 38.4315Z" fill="#111111"></path><path d="M248.387 15.5577H229.333V0.00134277H248.387V15.5577Z" fill="#F26B1D"></path><path d="M498.52 95.0002C471.911 95.0002 450.333 79.6998 450.333 47.5024C450.333 15.1721 471.911 -0.261373 498.52 0.00472471C524.996 0.270815 546.707 15.3051 546.707 47.5024C546.707 79.6998 524.996 95.0002 498.52 95.0002ZM498.52 17.4339C483.826 17.3008 469.264 28.6098 469.264 47.5024C469.264 66.3951 483.693 77.571 498.52 77.571C514.141 77.571 527.644 66.3951 527.644 47.5024C527.644 28.4767 513.347 17.5669 498.52 17.4339Z" fill="#F26B1D"></path><path d="M566.871 44.7738H552.707V27.2116H567.798C570.578 27.2116 574.152 27.7438 576.8 28.409V28.1429C574.152 27.4777 570.446 26.9455 568.328 25.3489C565.68 23.6193 562.9 20.4262 562.9 16.7009C562.9 7.65368 570.048 1.00134 601.555 1.00134V16.1687C588.052 16.1687 581.168 18.0313 581.168 21.6236C581.168 25.2159 585.537 27.2116 590.435 27.2116H605.525V44.7738H585.802V94.1341H566.871V44.7738Z" fill="#F26B1D"></path><path d="M611.194 44.7738H597.029V27.2116H612.121C614.901 27.2116 618.475 27.7438 621.123 28.409V28.1429C618.475 27.4777 614.768 26.9455 612.65 25.3489C610.003 23.6193 607.223 20.4262 607.223 16.7009C607.223 7.65368 614.371 1.00134 645.878 1.00134V16.1687C632.375 16.1687 625.491 18.0313 625.491 21.6236C625.491 25.2159 629.86 27.2116 634.758 27.2116H645.745V44.7738H630.125V94.1341H611.194V44.7738Z" fill="#F26B1D"></path><path d="M692.122 94.1225C670.411 94.2556 651.878 83.0796 651.878 60.0625C651.878 37.0454 670.411 25.8695 692.122 26.0025C713.832 26.1356 730.645 37.0454 730.645 60.0625C730.645 61.9252 730.512 62.0582 730.512 63.7878H671.338C672.794 74.0324 681.796 79.8865 692.651 79.7534C702.845 79.7534 709.464 77.7577 712.508 68.9767L729.983 69.908C725.217 89.1998 710.39 93.9895 692.122 94.1225ZM692.651 39.4403C682.723 39.4403 670.147 45.9596 671.338 63.7878C667.617 56.5732 664.797 54.3077 670.622 54.3077L713.701 53.8043C712.51 42.8944 703.374 39.5733 692.651 39.4403Z" fill="#F26B1D"></path><path d="M795.2 73.9669L813.865 71.7051C814.527 79.1557 821.544 81.9497 832.399 81.9497C843.651 81.9497 849.873 78.7566 849.873 72.7695C849.873 62.6579 796.391 73.8338 796.391 48.0228C796.391 28.864 823.264 27.0013 832.531 27.0013C846.431 27.0013 866.024 32.4563 866.95 47.0914L850.138 48.9541C849.344 42.7009 843.122 40.4391 832.002 40.4391C821.279 40.4391 815.322 42.3017 815.322 48.821C815.322 58.7996 868.803 47.7567 868.803 73.1686C868.803 93.5248 841.268 95.2544 831.604 95.2544C822.867 95.2544 796.126 92.4604 795.2 73.9669Z" fill="#F26B1D"></path><path d="M736.645 49.821C736.645 34.7867 742.999 28.0013 758.355 28.0013H789.2V45.4305L764.444 45.5635C757.031 45.5635 755.575 47.0271 755.575 56.2073V94.5248H736.645V49.821Z" fill="#F26B1D"></path></svg>